Coordinates

Units are S.I. units (second, meters, Newtons, ...)
If the header above contains a line with 'inDegrees', this indicates whether rotational values are in degrees (yes) or radians (no).

inDegrees=no
nColumns=22
nRows=16
DataType=double
version=3
OpenSimVersion=4.6-2026-03-31-d6972f9e6
endheader
time	/jointset/ground_pelvis/pelvis_tilt/value	/jointset/ground_pelvis/pelvis_list/value	/jointset/ground_pelvis/pelvis_rotation/value	/jointset/ground_pelvis/pelvis_tx/value	/jointset/ground_pelvis/pelvis_ty/value	/jointset/ground_pelvis/pelvis_tz/value	/jointset/hip_r/hip_flexion_r/value	/jointset/hip_r/hip_adduction_r/value	/jointset/hip_r/hip_rotation_r/value	/jointset/walker_knee_r/knee_angle_r/value	/jointset/patellofemoral_r/knee_angle_r_beta/value	/jointset/ankle_r/ankle_angle_r/value	/jointset/hip_l/hip_flexion_l/value	/jointset/hip_l/hip_adduction_l/value	/jointset/hip_l/hip_rotation_l/value	/jointset/walker_knee_l/knee_angle_l/value	/jointset/patellofemoral_l/knee_angle_l_beta/value	/jointset/ankle_l/ankle_angle_l/value	/jointset/back/lumbar_extension/value	/jointset/back/lumbar_bending/value	/jointset/back/lumbar_rotation/value
20.165	-0.6909355532468332	-0.07866311309079445	3.085845866876148	-3.444367080175061	1.032575769505433	2.503535159933654	-0.5156302541324006	-0.229675561561435	-0.2361137611376973	0.3359130451963719	0.335913040927474	0.09590604022784342	-0.4867444427679247	-0.01459718149091939	-0.09331834167645375	0.4348861044380541	0.4348861018009295	0.1690805161091102	-1.146874442098615	-0.09381682532604442	-0.009398741871529144
20.17	-0.6909288643524373	-0.079068628274575	3.086509661288338	-3.44310168623651	1.031793390670169	2.503535734516364	-0.5091613357939633	-0.2312032569049102	-0.2339273820385883	0.3466611825605984	0.3466611787106864	0.09986882377518574	-0.4810068208438879	-0.01538859509684085	-0.09282279410595559	0.4437410012266124	0.4437409988366357	0.1719692071854995	-1.150631175809102	-0.09353820976495773	-0.01037579711210939
20.175	-0.690861457916773	-0.07948272359462089	3.087168925370436	-3.441834151196928	1.031001404960417	2.503535380665763	-0.5025920720343491	-0.2327472696594894	-0.231736389573743	0.3574647925777863	0.3574647891391658	0.103853695479301	-0.4751815693921668	-0.01617048776730675	-0.09232451157198049	0.4526339140647068	0.4526339119189105	0.1748699038467385	-1.154340410253527	-0.09327150313887983	-0.01135368875760772
20.18	-0.6906747585425634	-0.07991380267712854	3.087819399042087	-3.440562357304087	1.030190374652414	2.503533206915042	-0.4958254586808076	-0.2343234951884865	-0.2295366764539502	0.3683776513153741	0.3683776482732271	0.1078820460410344	-0.4691837889897335	-0.0169335734651489	-0.09182066489963632	0.4616020581952601	0.4616020562878927	0.1777942514623418	-1.157956533360439	-0.09302814311096735	-0.0123333488079722
20.185	-0.6903143436773329	-0.08036992510700051	3.088457346855795	-3.439284233140786	1.029351191667672	2.503528394264594	-0.4887709725872481	-0.2359470097573926	-0.2273251144240646	0.3794502435825777	0.3794502409160104	0.1119739211288977	-0.4629338786326622	-0.01766902350030985	-0.0913082428804122	0.4706810884243353	0.4706810867471744	0.1807532043199816	-1.161437587603488	-0.09281865111477329	-0.01331589743530366
20.19	-0.6897317049006793	-0.08085865364681401	3.089079778797188	-3.437997775809607	1.028475221922058	2.503520228644767	-0.4813473278009403	-0.2376317205012553	-0.2250999619787496	0.390728360768616	0.3907283584520497	0.1161474649459317	-0.456359798164096	-0.01836866605217177	-0.09078398434531859	0.4799044150146608	0.4799044135573913	0.1837567483730749	-1.164746810288787	-0.09265223890850532	-0.01430272423594318
20.195	-0.6888856656076781	-0.08138691962041722	3.089684619580665	-3.436701071699678	1.027554427538645	2.503508128855271	-0.473484700089448	-0.2393900808016304	-0.2228611788117301	0.4022519645072899	0.4022519625120651	0.1204184840249562	-0.4493989101580828	-0.01902515380292009	-0.09024434617528117	0.4893026204783411	0.4893026192289431	0.1868136926746921	-1.167853861667603	-0.09253648906932048	-0.01529554575869946
20.2	-0.6877433924316011	-0.08196090911237314	3.090270812608068	-3.435392315238235	1.026581462906258	2.503491668847325	-0.4651263197152609	-0.241232884176933	-0.2206106259745176	0.4140543661190174	0.4140543644150762	0.1248001480802563	-0.4419993252651235	-0.01963209249743313	-0.08968551921075495	0.4989029933324477	0.4989029922775648	0.1899315366026075	-1.170735684583276	-0.09247712588692983	-0.01629642827526289
20.205	-0.6862809732837519	-0.0825859703546243	3.090838354265114	-3.43406982530646	1.02554974270478	2.503470593732149	-0.4562293898941318	-0.2431691389945073	-0.2183521412070458	0.4261617412505649	0.4261617398080434	0.1293028306086459	-0.4341207169372496	-0.02018412983274248	-0.0891034976345966	0.5087291885988849	0.5087291877241906	0.1931164152845481	-1.173376971557583	-0.09247788222027642	-0.01730776989901568
20.21	-0.6844835700608044	-0.08326654017631668	3.09138826572153	-3.432732059247848	1.024453482152996	2.503444829485839	-0.4467653468262274	-0.245206014366211	-0.2160914924929266	0.4385929669563366	0.4385929657468912	0.1339340774497254	-0.4257346116110081	-0.02067701211220096	-0.08849420015581326	0.5188010210817918	0.5188010203724007	0.1963731205009869	-1.175770247292764	-0.09254045537626443	-0.01833224264560269
20.215	-0.6823451866617457	-0.08400608664164526	3.091922514751702	-3.431377624426656	1.023287711685909	2.503414486578258	-0.4367195275922162	-0.2473488417266171	-0.2138362222982443	0.4513597440492279	0.4513597430469736	0.1386986808429322	-0.4168241988098315	-0.02110761906069621	-0.08785363730595418	0.5291343908830032	0.5291343903239287	0.1997051826323653	-1.177915604452072	-0.09266453852754587	-0.01937269920086279
20.22	-0.6798681219947292	-0.08480706352149904	3.092443897734385	-3.430005287103353	1.022048270088958	2.503379857532852	-0.4260903516619617	-0.2496011549087342	-0.2115953955664425	0.4644669526233187	0.4644669518053484	0.1435988269576921	-0.4073837420251207	-0.02147398716792921	-0.0871781234178587	0.5397413306194228	0.539741330196005	0.2031149798951854	-1.179820157595226	-0.09284791403200779	-0.02043204775414843
20.225	-0.6770621933642745	-0.08567087115878753	3.092955888888721	-3.428613978284124	1.020731781232765	2.503341408246062	-0.4148881418488637	-0.2519647516991279	-0.2093792625727475	0.4779131817784157	0.4779131811249483	0.1486342790363319	-0.3974176926557752	-0.02177533076899835	-0.08646453542880109	0.5506301546190416	0.5506301543172426	0.2066038302960351	-1.181497295197035	-0.09308659664853113	-0.02151309556918325
20.23	-0.6739438067968153	-0.08659782322362082	3.093462462657137	-3.42720279663334	1.019335618875422	2.503299763123319	-0.4031336990314736	-0.2544397671134118	-0.2071988481777307	0.4916913799135502	0.4916913794078003	0.1538025714398438	-0.3869396022587471	-0.02201206201594553	-0.08571061019500067	0.5618056826578619	0.5618056824643777	0.2101720424062917	-1.182965801082447	-0.09337501873101745	-0.02261836603906794
20.235	-0.67053492859377	-0.08758712665231187	3.093967894559162	-3.425771009194964	1.017857862157927	2.503255684537233	-0.3908567151034099	-0.2570247600730997	-0.2050654820139592	0.5057895866790764	0.5057895863069397	0.1590992148359835	-0.3759709044983223	-0.02218579952217779	-0.08491525488208754	0.5732695073086573	0.5732695072108875	0.2138189397729676	-1.184248894555268	-0.09370625451299325	-0.02374990355932819
20.24	-0.6668619973175149	-0.08863688441320156	3.094476549987301	-3.424318050727875	1.016297243298483	2.503210047645308	-0.3780940888375232	-0.2597168185298938	-0.202990294179452	0.5201917177785517	0.5201917175281774	0.1645179215805634	-0.3645396177938665	-0.02229935389563101	-0.08407883562606408	0.5850202816663249	0.5850202816522898	0.2175428909657804	-1.18537322418146	-0.09407227839440617	-0.02490908849271681
